<svg width="105" height="47" viewBox="0 0 105 47" fill="none" xmlns="http://www.w3.org/2000/svg">
<path d="M0 6.2811C0 2.81214 2.81214 0 6.28109 0H84.1558C85.8217 0 87.4193 0.661756 88.5973 1.83969L94.6089 7.85136L102.492 15.419C103.726 16.6035 104.423 18.2398 104.423 19.9501V46.7156H0V6.2811Z" fill="#0E911B"/>
<path d="M104.424 46.7156L91.4688 15.7028L103.246 16.4879L104.424 19.2359V46.7156Z" fill="#0B7115"/>
<path d="M103.088 17.621C84.8655 22.1089 81.9418 11.8017 86.3154 1.03542C86.521 0.529399 87.1722 0.405145 87.5627 0.786987L103.445 16.3166C103.879 16.7404 103.677 17.4761 103.088 17.621Z" fill="#3CC149"/>
<path d="M16.627 21.1258V31.2729H15.1219V26.7011H9.8293V31.2729H8.31713V21.1258H9.8293V25.6058H15.1219V21.1258H16.627ZM26.0551 22.3836H22.8329V31.2729H21.3349V22.3836H18.0986V21.1258H26.0551V22.3836ZM38.1846 21.1258V31.2729H36.8703V24.0513C36.8703 23.9429 36.8727 23.8275 36.8774 23.705C36.8868 23.5825 36.8962 23.4577 36.9056 23.3305L33.528 29.5276C33.4102 29.7584 33.2289 29.8738 32.9839 29.8738H32.7719C32.5269 29.8738 32.3479 29.7584 32.2349 29.5276L28.7936 23.3093C28.8219 23.5731 28.836 23.8204 28.836 24.0513V31.2729H27.5146V21.1258H28.6311C28.763 21.1258 28.8643 21.14 28.9349 21.1682C29.0103 21.1918 29.081 21.2625 29.1469 21.3802L32.5387 27.4572C32.6047 27.5797 32.6659 27.7092 32.7224 27.8458C32.779 27.9824 32.8331 28.1191 32.885 28.2557C32.9839 27.9777 33.0993 27.7092 33.2312 27.4501L36.5594 21.3802C36.6206 21.2625 36.6866 21.1918 36.7573 21.1682C36.8326 21.14 36.9363 21.1258 37.0682 21.1258H38.1846ZM46.5032 30.0081V31.2729H40.6948V21.1258H42.1999V30.0081H46.5032Z" fill="white"/>
</svg>
